# xmcd
#
# Track frame offsets: 
#        182
#        19882
#        32447
#        55110
#        73172
#        98860
#        119985
#        143007
#        153682
#        175842
#        198402
#        218542
#
# Disc length: 3142 seconds
#
# Revision: 0
# Processed by: cddbd v1.5.2PL0 Copyright (c) Steve Scherf et al.
# Submitted via: ExactAudioCopy v0.95b4
#
DISCID=ac0c440c
DTITLE=Jennifer Warnes - The Hunter
DYEAR=1992
DGENRE=Pop
TTITLE0=Rock You Genely
TTITLE1=Some Where Somebody
TTITLE2=Big Noise New York
TTITLE3=True Emotion
TTITLE4=Way Down Deep
TTITLE5=Pretending To Care
TTITLE6=The Whole Of The Moon
TTITLE7=Lights Of Lousianne
TTITLE8=I Can't Nide
TTITLE9=The Hunter
TTITLE10=Sometime Love Just Arn't Enough
TTITLE11=Stay
EXTD=
EXTT0=
EXTT1=
EXTT2=
EXTT3=
EXTT4=
EXTT5=
EXTT6=
EXTT7=
EXTT8=
EXTT9=
EXTT10=
EXTT11=
PLAYORDER=
